<svg width="16" height="37" viewBox="0 0 16 37" fill="none" xmlns="http://www.w3.org/2000/svg">
<path d="M14.5134 0C13.8244 2.75968 10.4785 4.15224 6.16407 6.96824C2.74493 9.20288 -0.135256 10.4837 0.00490998 13.0663C0.205664 16.3056 5.21908 17.4965 6.82421 17.7217L6.7383 17.7853C5.50213 18.7428 4.36543 19.7229 3.66369 20.3942C-0.345051 24.7826 3.90876 26.7765 6.30786 27.5023C0.715688 31.4911 4.84832 35.4707 4.84832 35.4707C7.32519 37.7762 9.99105 36.7906 9.99105 36.7906C9.99105 36.7906 12.2428 36.0884 12.0176 33.4759C11.9335 31.6491 10.1629 30.7244 10.1629 30.7244C10.1629 30.7244 11.7137 31.6164 11.1576 33.5967C10.7778 34.9166 8.45918 35.5952 6.61441 34.8303C3.82104 33.455 9.07139 29.9832 9.07139 29.9832C15.2143 25.4921 11.1576 21.5233 11.1576 21.5233C11.3963 23.7943 8.75398 25.8836 7.37945 26.8083C2.9068 24.9861 5.12504 23.4846 5.12504 23.4846C7.89128 21.4007 13.4789 19.2524 13.7719 16.1866C13.8893 15.481 13.8365 14.7574 13.6177 14.0766C13.399 13.3958 13.0208 12.7777 12.5149 12.2741C12.1062 13.8302 11.8557 14.0146 7.76829 17.0259C5.59075 16.113 1.57658 14.8458 3.76317 12.9745C6.12428 10.9552 14.678 8.60334 15.7234 5.20052C16.7688 1.7977 14.5143 0 14.5143 0" fill="black"/>
</svg>
